<svg width="332" height="253" viewBox="0 0 332 253" fill="none" xmlns="http://www.w3.org/2000/svg">
<path d="M0 169.196H21.3348L86.327 62.0285H107.662L171.469 169.196H197.15V185H121.095V169.196H144.998L130.676 144.009H61.4364L47.5095 169.196H70.3259V185H0V169.196ZM123.367 67.0658L180.556 163.27H176.012L118.823 67.0658H123.367ZM123.564 131.663L95.6116 82.5731L68.3504 131.663H123.564ZM97.3895 93.8331L99.76 98.1791L83.8577 125.737H79.0179L97.3895 93.8331ZM65.2885 150.924H129.787L131.565 154.677H68.2517L63.6094 163.27H58.572L65.2885 150.924ZM204.162 191.914V174.629H208.311V195.667H125.342V191.914H204.162ZM77.4375 191.914V174.629H81.3884V195.667H4.34598V191.914H77.4375Z" fill="black"/>
<path d="M154.705 169.196H180.484V77.832H153.223V62.0285H234.118C241.69 62.0285 248.506 62.1602 254.564 62.4235C260.688 62.6869 266.219 63.2796 271.157 64.2014C276.952 65.3209 281.858 66.8683 285.874 68.8437C289.957 70.8192 293.282 73.2227 295.85 76.0541C298.419 78.8198 300.262 81.9805 301.382 85.5363C302.567 89.0262 303.16 92.8454 303.16 96.9939C303.16 104.566 300.789 111.151 296.048 116.748C291.307 122.345 284.162 126.626 274.614 129.589C273.429 129.984 272.178 130.346 270.861 130.675C269.61 130.939 268.326 131.235 267.009 131.564C270.499 133.408 273.989 135.746 277.479 138.577C280.969 141.408 284.195 144.503 287.158 147.862C290.122 151.22 292.69 154.743 294.863 158.43C297.102 162.052 298.682 165.641 299.604 169.196H319.556V185H249.823V169.196H273.33C272.211 165.641 270.466 161.986 268.095 158.233C265.725 154.479 262.86 150.956 259.502 147.664C256.144 144.372 252.325 141.507 248.045 139.071C243.83 136.634 239.32 134.988 234.513 134.132H202.708V169.196H226.809V185H154.705V169.196ZM282.121 133.342C286.533 132.025 290.484 130.181 293.974 127.811C297.464 125.44 300.394 122.675 302.765 119.514C305.201 116.353 307.045 112.863 308.296 109.044C309.613 105.225 310.271 101.241 310.271 97.0926C310.271 94.1953 309.975 91.3968 309.382 88.697C308.79 85.9972 307.769 83.4291 306.32 80.9927C304.872 78.4905 302.929 76.0871 300.493 73.7824C298.056 71.4777 295.027 69.2388 291.406 67.0658C295.488 68.5804 298.978 70.4241 301.876 72.5971C304.839 74.7042 307.242 77.0748 309.086 79.7087C310.996 82.3426 312.378 85.1412 313.234 88.1043C314.156 91.0017 314.617 93.9978 314.617 97.0926C314.617 100.912 314.09 104.632 313.037 108.254C312.049 111.876 310.502 115.333 308.395 118.625C306.353 121.852 303.719 124.815 300.493 127.515C297.266 130.214 293.48 132.519 289.134 134.429C291.109 136.009 293.052 137.984 294.962 140.355C296.937 142.66 298.781 145.162 300.493 147.862C302.205 150.496 303.752 153.162 305.135 155.862C306.518 158.496 307.604 160.932 308.395 163.171H303.752C302.765 160.603 301.513 157.903 299.999 155.072C298.55 152.175 296.871 149.376 294.962 146.676C293.118 143.977 291.109 141.474 288.936 139.17C286.763 136.799 284.492 134.857 282.121 133.342ZM238.365 118.329C246.267 118.329 252.819 117.901 258.021 117.045C263.223 116.123 267.371 114.806 270.466 113.094C273.627 111.316 275.833 109.143 277.084 106.575C278.401 104.007 279.059 101.076 279.059 97.784C279.059 93.7014 277.61 90.0469 274.713 86.8203C271.816 83.5279 267.206 81.0915 260.885 79.5112C257.922 78.7868 254.564 78.3259 250.81 78.1283C247.057 77.9308 242.908 77.832 238.365 77.832H202.708V118.329H238.365ZM209.82 84.7461H238.365C243.765 84.7461 248.275 84.8778 251.897 85.1412C255.518 85.3387 258.58 85.7338 261.083 86.3264C263.585 86.9191 265.659 87.7093 267.305 88.697C268.951 89.6189 270.466 90.8041 271.849 92.2528C270.532 91.6602 268.951 91.1334 267.108 90.6724C265.33 90.2115 263.124 89.8164 260.49 89.4872C257.856 89.1579 254.728 88.9275 251.107 88.7958C247.551 88.5982 243.304 88.4994 238.365 88.4994H213.771V112.402H209.82V84.7461ZM158.557 84.7461H174.262V88.4994H158.557V84.7461ZM209.82 141.046H221.771C228.093 141.046 233.69 141.573 238.563 142.627C243.501 143.614 247.09 145.359 249.329 147.862C247.485 147.335 245.641 146.874 243.797 146.479C242.02 146.084 239.978 145.787 237.674 145.59C235.435 145.326 232.801 145.129 229.772 144.997C226.809 144.866 223.22 144.8 219.006 144.8H213.771V163.27H209.82V141.046ZM326.667 191.914V174.728H330.618V195.667H254.07V191.914H326.667ZM234.118 191.914V174.728H238.069V195.667H161.026V191.914H234.118Z" fill="black"/>
</svg>
